<mxfile host="app.diagrams.net" modified="2023-08-18T07:53:13.263Z" agent="Mozilla/5.0 (Windows NT 10.0; Win64; x64) AppleWebKit/537.36 (KHTML, like Gecko) Chrome/114.0.0.0 Safari/537.36 OPR/100.0.0.0 (Edition std-1)" etag="DkZk-3-sTJxlKpTQRv_H" version="21.6.8" type="github">
  <diagram id="C5RBs43oDa-KdzZeNtuy" name="Page-1">
    <mxGraphModel dx="1347" dy="955" grid="1" gridSize="10" guides="1" tooltips="1" connect="1" arrows="1" fold="1" page="1" pageScale="1" pageWidth="827" pageHeight="1169" math="0" shadow="0">
      <root>
        <mxCell id="WIyWlLk6GJQsqaUBKTNV-0" />
        <mxCell id="WIyWlLk6GJQsqaUBKTNV-1" parent="WIyWlLk6GJQsqaUBKTNV-0" />
        <mxCell id="WIyWlLk6GJQsqaUBKTNV-2" value="" style="rounded=0;html=1;jettySize=auto;orthogonalLoop=1;fontSize=11;endArrow=block;endFill=0;endSize=8;strokeWidth=1;shadow=0;labelBackgroundColor=none;edgeStyle=orthogonalEdgeStyle;" parent="WIyWlLk6GJQsqaUBKTNV-1" source="WIyWlLk6GJQsqaUBKTNV-3" target="WIyWlLk6GJQsqaUBKTNV-6" edge="1">
          <mxGeometry relative="1" as="geometry" />
        </mxCell>
        <mxCell id="WIyWlLk6GJQsqaUBKTNV-3" value="smoke detected ==2 or&lt;br&gt;Temperature increased ==2 or&lt;br&gt;manual call point activated ==2&lt;span style=&quot;white-space: pre;&quot;&gt;&#x9;&lt;/span&gt;" style="rounded=1;whiteSpace=wrap;html=1;fontSize=12;glass=0;strokeWidth=1;shadow=0;" parent="WIyWlLk6GJQsqaUBKTNV-1" vertex="1">
          <mxGeometry x="328" y="210" width="160" height="80" as="geometry" />
        </mxCell>
        <mxCell id="uvOYu6IpnbeJdLuDEGI5-11" style="edgeStyle=none;curved=1;rounded=0;orthogonalLoop=1;jettySize=auto;html=1;fontSize=12;startSize=8;endSize=8;" edge="1" parent="WIyWlLk6GJQsqaUBKTNV-1" source="WIyWlLk6GJQsqaUBKTNV-6" target="WIyWlLk6GJQsqaUBKTNV-11">
          <mxGeometry relative="1" as="geometry" />
        </mxCell>
        <mxCell id="WIyWlLk6GJQsqaUBKTNV-6" value="Lamp&lt;br&gt;plugged in?" style="rhombus;whiteSpace=wrap;html=1;shadow=0;fontFamily=Helvetica;fontSize=12;align=center;strokeWidth=1;spacing=6;spacingTop=-4;" parent="WIyWlLk6GJQsqaUBKTNV-1" vertex="1">
          <mxGeometry x="358" y="340" width="100" height="80" as="geometry" />
        </mxCell>
        <mxCell id="uvOYu6IpnbeJdLuDEGI5-43" style="edgeStyle=none;curved=1;rounded=0;orthogonalLoop=1;jettySize=auto;html=1;entryX=0.5;entryY=0;entryDx=0;entryDy=0;fontSize=12;startSize=8;endSize=8;" edge="1" parent="WIyWlLk6GJQsqaUBKTNV-1" source="WIyWlLk6GJQsqaUBKTNV-11" target="uvOYu6IpnbeJdLuDEGI5-39">
          <mxGeometry relative="1" as="geometry" />
        </mxCell>
        <mxCell id="WIyWlLk6GJQsqaUBKTNV-11" value="Siren On&lt;br&gt;Lift at the ground floor&lt;br&gt;and stop working&lt;br&gt;Open exit doors" style="rounded=1;whiteSpace=wrap;html=1;fontSize=12;glass=0;strokeWidth=1;shadow=0;" parent="WIyWlLk6GJQsqaUBKTNV-1" vertex="1">
          <mxGeometry x="348" y="500" width="120" height="140" as="geometry" />
        </mxCell>
        <mxCell id="uvOYu6IpnbeJdLuDEGI5-1" style="edgeStyle=none;curved=1;rounded=0;orthogonalLoop=1;jettySize=auto;html=1;entryX=0.5;entryY=0;entryDx=0;entryDy=0;fontSize=12;startSize=8;endSize=8;" edge="1" parent="WIyWlLk6GJQsqaUBKTNV-1" source="uvOYu6IpnbeJdLuDEGI5-0" target="WIyWlLk6GJQsqaUBKTNV-3">
          <mxGeometry relative="1" as="geometry" />
        </mxCell>
        <mxCell id="uvOYu6IpnbeJdLuDEGI5-0" value="&lt;font style=&quot;font-size: 12px;&quot;&gt;start&lt;/font&gt;" style="ellipse;whiteSpace=wrap;html=1;fontSize=16;" vertex="1" parent="WIyWlLk6GJQsqaUBKTNV-1">
          <mxGeometry x="358" y="10" width="100" height="50" as="geometry" />
        </mxCell>
        <mxCell id="uvOYu6IpnbeJdLuDEGI5-12" style="edgeStyle=none;curved=1;rounded=0;orthogonalLoop=1;jettySize=auto;html=1;entryX=0.5;entryY=0;entryDx=0;entryDy=0;fontSize=12;startSize=8;endSize=8;" edge="1" parent="WIyWlLk6GJQsqaUBKTNV-1" source="uvOYu6IpnbeJdLuDEGI5-4" target="uvOYu6IpnbeJdLuDEGI5-7">
          <mxGeometry relative="1" as="geometry" />
        </mxCell>
        <mxCell id="uvOYu6IpnbeJdLuDEGI5-4" value="Lamp&lt;br&gt;plugged in?" style="rhombus;whiteSpace=wrap;html=1;shadow=0;fontFamily=Helvetica;fontSize=12;align=center;strokeWidth=1;spacing=6;spacingTop=-4;" vertex="1" parent="WIyWlLk6GJQsqaUBKTNV-1">
          <mxGeometry x="578" y="340" width="100" height="80" as="geometry" />
        </mxCell>
        <mxCell id="uvOYu6IpnbeJdLuDEGI5-10" style="edgeStyle=none;curved=1;rounded=0;orthogonalLoop=1;jettySize=auto;html=1;fontSize=12;startSize=8;endSize=8;" edge="1" parent="WIyWlLk6GJQsqaUBKTNV-1" source="uvOYu6IpnbeJdLuDEGI5-5" target="uvOYu6IpnbeJdLuDEGI5-8">
          <mxGeometry relative="1" as="geometry" />
        </mxCell>
        <mxCell id="uvOYu6IpnbeJdLuDEGI5-5" value="Lamp&lt;br&gt;plugged in?" style="rhombus;whiteSpace=wrap;html=1;shadow=0;fontFamily=Helvetica;fontSize=12;align=center;strokeWidth=1;spacing=6;spacingTop=-4;" vertex="1" parent="WIyWlLk6GJQsqaUBKTNV-1">
          <mxGeometry x="138" y="340" width="100" height="80" as="geometry" />
        </mxCell>
        <mxCell id="uvOYu6IpnbeJdLuDEGI5-45" style="edgeStyle=none;curved=1;rounded=0;orthogonalLoop=1;jettySize=auto;html=1;entryX=0.5;entryY=0;entryDx=0;entryDy=0;fontSize=12;startSize=8;endSize=8;" edge="1" parent="WIyWlLk6GJQsqaUBKTNV-1" source="uvOYu6IpnbeJdLuDEGI5-7" target="uvOYu6IpnbeJdLuDEGI5-38">
          <mxGeometry relative="1" as="geometry" />
        </mxCell>
        <mxCell id="uvOYu6IpnbeJdLuDEGI5-7" value="Siren On&lt;br&gt;Lift at the ground floor&lt;br&gt;and stop working&lt;br&gt;Open exit doors&lt;br&gt;" style="rounded=1;whiteSpace=wrap;html=1;fontSize=12;glass=0;strokeWidth=1;shadow=0;" vertex="1" parent="WIyWlLk6GJQsqaUBKTNV-1">
          <mxGeometry x="568" y="500" width="120" height="140" as="geometry" />
        </mxCell>
        <mxCell id="uvOYu6IpnbeJdLuDEGI5-42" style="edgeStyle=none;curved=1;rounded=0;orthogonalLoop=1;jettySize=auto;html=1;entryX=0.5;entryY=0;entryDx=0;entryDy=0;fontSize=12;startSize=8;endSize=8;" edge="1" parent="WIyWlLk6GJQsqaUBKTNV-1" source="uvOYu6IpnbeJdLuDEGI5-8" target="uvOYu6IpnbeJdLuDEGI5-37">
          <mxGeometry relative="1" as="geometry" />
        </mxCell>
        <mxCell id="uvOYu6IpnbeJdLuDEGI5-8" value="Siren On&lt;br&gt;Lift at the ground floor&lt;br&gt;and stop working&lt;br&gt;Open exit doors&lt;br&gt;" style="rounded=1;whiteSpace=wrap;html=1;fontSize=12;glass=0;strokeWidth=1;shadow=0;" vertex="1" parent="WIyWlLk6GJQsqaUBKTNV-1">
          <mxGeometry x="128" y="500" width="120" height="140" as="geometry" />
        </mxCell>
        <mxCell id="uvOYu6IpnbeJdLuDEGI5-19" value="" style="edgeStyle=none;curved=1;rounded=0;orthogonalLoop=1;jettySize=auto;html=1;fontSize=12;startSize=8;endSize=8;" edge="1" parent="WIyWlLk6GJQsqaUBKTNV-1" source="uvOYu6IpnbeJdLuDEGI5-13" target="uvOYu6IpnbeJdLuDEGI5-5">
          <mxGeometry relative="1" as="geometry" />
        </mxCell>
        <mxCell id="uvOYu6IpnbeJdLuDEGI5-13" value="smoke detected == 1 or&lt;br&gt;Temperature increased ==1 or&lt;br&gt;manual call point activated == 1" style="rounded=1;whiteSpace=wrap;html=1;fontSize=12;glass=0;strokeWidth=1;shadow=0;" vertex="1" parent="WIyWlLk6GJQsqaUBKTNV-1">
          <mxGeometry x="108" y="210" width="160" height="80" as="geometry" />
        </mxCell>
        <mxCell id="uvOYu6IpnbeJdLuDEGI5-20" value="" style="edgeStyle=none;curved=1;rounded=0;orthogonalLoop=1;jettySize=auto;html=1;fontSize=12;startSize=8;endSize=8;" edge="1" parent="WIyWlLk6GJQsqaUBKTNV-1" source="uvOYu6IpnbeJdLuDEGI5-14" target="uvOYu6IpnbeJdLuDEGI5-4">
          <mxGeometry relative="1" as="geometry" />
        </mxCell>
        <mxCell id="uvOYu6IpnbeJdLuDEGI5-14" value="smoke detected ==3 or&lt;br&gt;Temperature increased ==3 or&lt;br&gt;manual call point activated ==3" style="rounded=1;whiteSpace=wrap;html=1;fontSize=12;glass=0;strokeWidth=1;shadow=0;" vertex="1" parent="WIyWlLk6GJQsqaUBKTNV-1">
          <mxGeometry x="553" y="210" width="150" height="80" as="geometry" />
        </mxCell>
        <mxCell id="uvOYu6IpnbeJdLuDEGI5-21" value="yes" style="text;html=1;align=center;verticalAlign=middle;resizable=0;points=[];autosize=1;strokeColor=none;fillColor=none;fontSize=16;" vertex="1" parent="WIyWlLk6GJQsqaUBKTNV-1">
          <mxGeometry x="198" y="300" width="50" height="30" as="geometry" />
        </mxCell>
        <mxCell id="uvOYu6IpnbeJdLuDEGI5-22" value="yes" style="text;html=1;align=center;verticalAlign=middle;resizable=0;points=[];autosize=1;strokeColor=none;fillColor=none;fontSize=16;" vertex="1" parent="WIyWlLk6GJQsqaUBKTNV-1">
          <mxGeometry x="413" y="298" width="50" height="30" as="geometry" />
        </mxCell>
        <mxCell id="uvOYu6IpnbeJdLuDEGI5-23" value="yes" style="text;html=1;align=center;verticalAlign=middle;resizable=0;points=[];autosize=1;strokeColor=none;fillColor=none;fontSize=16;" vertex="1" parent="WIyWlLk6GJQsqaUBKTNV-1">
          <mxGeometry x="668" y="298" width="50" height="30" as="geometry" />
        </mxCell>
        <mxCell id="uvOYu6IpnbeJdLuDEGI5-25" value="" style="endArrow=none;html=1;rounded=0;fontSize=12;startSize=8;endSize=8;curved=1;exitX=0;exitY=0.5;exitDx=0;exitDy=0;" edge="1" parent="WIyWlLk6GJQsqaUBKTNV-1" source="uvOYu6IpnbeJdLuDEGI5-13">
          <mxGeometry width="50" height="50" relative="1" as="geometry">
            <mxPoint x="500" y="340" as="sourcePoint" />
            <mxPoint x="60" y="250" as="targetPoint" />
          </mxGeometry>
        </mxCell>
        <mxCell id="uvOYu6IpnbeJdLuDEGI5-26" value="" style="endArrow=none;html=1;rounded=0;fontSize=12;startSize=8;endSize=8;curved=1;" edge="1" parent="WIyWlLk6GJQsqaUBKTNV-1">
          <mxGeometry width="50" height="50" relative="1" as="geometry">
            <mxPoint x="60" y="250" as="sourcePoint" />
            <mxPoint x="60" y="150" as="targetPoint" />
          </mxGeometry>
        </mxCell>
        <mxCell id="uvOYu6IpnbeJdLuDEGI5-27" value="" style="endArrow=none;html=1;rounded=0;fontSize=12;startSize=8;endSize=8;curved=1;" edge="1" parent="WIyWlLk6GJQsqaUBKTNV-1">
          <mxGeometry width="50" height="50" relative="1" as="geometry">
            <mxPoint x="60" y="150" as="sourcePoint" />
            <mxPoint x="190" y="150" as="targetPoint" />
          </mxGeometry>
        </mxCell>
        <mxCell id="uvOYu6IpnbeJdLuDEGI5-28" value="NO" style="text;html=1;align=center;verticalAlign=middle;resizable=0;points=[];autosize=1;strokeColor=none;fillColor=none;fontSize=16;" vertex="1" parent="WIyWlLk6GJQsqaUBKTNV-1">
          <mxGeometry x="50" y="190" width="50" height="30" as="geometry" />
        </mxCell>
        <mxCell id="uvOYu6IpnbeJdLuDEGI5-29" value="" style="endArrow=none;html=1;rounded=0;fontSize=12;startSize=8;endSize=8;curved=1;exitX=0;exitY=0.5;exitDx=0;exitDy=0;" edge="1" parent="WIyWlLk6GJQsqaUBKTNV-1">
          <mxGeometry width="50" height="50" relative="1" as="geometry">
            <mxPoint x="331" y="242.29" as="sourcePoint" />
            <mxPoint x="280" y="242" as="targetPoint" />
          </mxGeometry>
        </mxCell>
        <mxCell id="uvOYu6IpnbeJdLuDEGI5-30" value="" style="endArrow=none;html=1;rounded=0;fontSize=12;startSize=8;endSize=8;curved=1;" edge="1" parent="WIyWlLk6GJQsqaUBKTNV-1">
          <mxGeometry width="50" height="50" relative="1" as="geometry">
            <mxPoint x="278" y="243" as="sourcePoint" />
            <mxPoint x="278" y="143" as="targetPoint" />
          </mxGeometry>
        </mxCell>
        <mxCell id="uvOYu6IpnbeJdLuDEGI5-31" value="" style="endArrow=none;html=1;rounded=0;fontSize=12;startSize=8;endSize=8;curved=1;" edge="1" parent="WIyWlLk6GJQsqaUBKTNV-1">
          <mxGeometry width="50" height="50" relative="1" as="geometry">
            <mxPoint x="280" y="142" as="sourcePoint" />
            <mxPoint x="413" y="142.29" as="targetPoint" />
          </mxGeometry>
        </mxCell>
        <mxCell id="uvOYu6IpnbeJdLuDEGI5-32" value="NO" style="text;html=1;align=center;verticalAlign=middle;resizable=0;points=[];autosize=1;strokeColor=none;fillColor=none;fontSize=16;" vertex="1" parent="WIyWlLk6GJQsqaUBKTNV-1">
          <mxGeometry x="268" y="170.29" width="50" height="30" as="geometry" />
        </mxCell>
        <mxCell id="uvOYu6IpnbeJdLuDEGI5-33" value="" style="endArrow=none;html=1;rounded=0;fontSize=12;startSize=8;endSize=8;curved=1;exitX=0;exitY=0.5;exitDx=0;exitDy=0;" edge="1" parent="WIyWlLk6GJQsqaUBKTNV-1">
          <mxGeometry width="50" height="50" relative="1" as="geometry">
            <mxPoint x="553" y="242.29" as="sourcePoint" />
            <mxPoint x="500" y="242" as="targetPoint" />
          </mxGeometry>
        </mxCell>
        <mxCell id="uvOYu6IpnbeJdLuDEGI5-34" value="" style="endArrow=none;html=1;rounded=0;fontSize=12;startSize=8;endSize=8;curved=1;" edge="1" parent="WIyWlLk6GJQsqaUBKTNV-1">
          <mxGeometry width="50" height="50" relative="1" as="geometry">
            <mxPoint x="500" y="243" as="sourcePoint" />
            <mxPoint x="500" y="143" as="targetPoint" />
          </mxGeometry>
        </mxCell>
        <mxCell id="uvOYu6IpnbeJdLuDEGI5-35" value="" style="endArrow=none;html=1;rounded=0;fontSize=12;startSize=8;endSize=8;curved=1;" edge="1" parent="WIyWlLk6GJQsqaUBKTNV-1">
          <mxGeometry width="50" height="50" relative="1" as="geometry">
            <mxPoint x="500" y="142" as="sourcePoint" />
            <mxPoint x="635" y="142.29" as="targetPoint" />
          </mxGeometry>
        </mxCell>
        <mxCell id="uvOYu6IpnbeJdLuDEGI5-36" value="NO" style="text;html=1;align=center;verticalAlign=middle;resizable=0;points=[];autosize=1;strokeColor=none;fillColor=none;fontSize=16;" vertex="1" parent="WIyWlLk6GJQsqaUBKTNV-1">
          <mxGeometry x="490" y="170.29" width="50" height="30" as="geometry" />
        </mxCell>
        <mxCell id="uvOYu6IpnbeJdLuDEGI5-48" style="edgeStyle=none;curved=1;rounded=0;orthogonalLoop=1;jettySize=auto;html=1;entryX=0.131;entryY=0.099;entryDx=0;entryDy=0;entryPerimeter=0;fontSize=12;startSize=8;endSize=8;" edge="1" parent="WIyWlLk6GJQsqaUBKTNV-1" source="uvOYu6IpnbeJdLuDEGI5-37" target="uvOYu6IpnbeJdLuDEGI5-46">
          <mxGeometry relative="1" as="geometry">
            <Array as="points">
              <mxPoint x="190" y="980" />
            </Array>
          </mxGeometry>
        </mxCell>
        <mxCell id="uvOYu6IpnbeJdLuDEGI5-37" value="&lt;br&gt;open valve 2" style="rounded=1;whiteSpace=wrap;html=1;fontSize=12;glass=0;strokeWidth=1;shadow=0;" vertex="1" parent="WIyWlLk6GJQsqaUBKTNV-1">
          <mxGeometry x="128" y="700" width="120" height="140" as="geometry" />
        </mxCell>
        <mxCell id="uvOYu6IpnbeJdLuDEGI5-49" style="edgeStyle=none;curved=1;rounded=0;orthogonalLoop=1;jettySize=auto;html=1;fontSize=12;startSize=8;endSize=8;entryX=0.862;entryY=0.111;entryDx=0;entryDy=0;entryPerimeter=0;" edge="1" parent="WIyWlLk6GJQsqaUBKTNV-1" source="uvOYu6IpnbeJdLuDEGI5-38" target="uvOYu6IpnbeJdLuDEGI5-46">
          <mxGeometry relative="1" as="geometry">
            <mxPoint x="420" y="950" as="targetPoint" />
            <Array as="points">
              <mxPoint x="660" y="980" />
            </Array>
          </mxGeometry>
        </mxCell>
        <mxCell id="uvOYu6IpnbeJdLuDEGI5-38" value="&lt;br&gt;open valve 2" style="rounded=1;whiteSpace=wrap;html=1;fontSize=12;glass=0;strokeWidth=1;shadow=0;" vertex="1" parent="WIyWlLk6GJQsqaUBKTNV-1">
          <mxGeometry x="568" y="700" width="120" height="140" as="geometry" />
        </mxCell>
        <mxCell id="uvOYu6IpnbeJdLuDEGI5-47" style="edgeStyle=none;curved=1;rounded=0;orthogonalLoop=1;jettySize=auto;html=1;fontSize=12;startSize=8;endSize=8;" edge="1" parent="WIyWlLk6GJQsqaUBKTNV-1" source="uvOYu6IpnbeJdLuDEGI5-39" target="uvOYu6IpnbeJdLuDEGI5-46">
          <mxGeometry relative="1" as="geometry" />
        </mxCell>
        <mxCell id="uvOYu6IpnbeJdLuDEGI5-39" value="open valve 2" style="rounded=1;whiteSpace=wrap;html=1;fontSize=12;glass=0;strokeWidth=1;shadow=0;" vertex="1" parent="WIyWlLk6GJQsqaUBKTNV-1">
          <mxGeometry x="348" y="710" width="120" height="140" as="geometry" />
        </mxCell>
        <mxCell id="uvOYu6IpnbeJdLuDEGI5-40" value="" style="endArrow=classic;html=1;rounded=0;fontSize=12;startSize=8;endSize=8;curved=1;entryX=0.5;entryY=0;entryDx=0;entryDy=0;" edge="1" parent="WIyWlLk6GJQsqaUBKTNV-1" target="uvOYu6IpnbeJdLuDEGI5-13">
          <mxGeometry width="50" height="50" relative="1" as="geometry">
            <mxPoint x="410" y="80" as="sourcePoint" />
            <mxPoint x="440" y="110" as="targetPoint" />
            <Array as="points">
              <mxPoint x="170" y="50" />
            </Array>
          </mxGeometry>
        </mxCell>
        <mxCell id="uvOYu6IpnbeJdLuDEGI5-41" value="" style="endArrow=classic;html=1;rounded=0;fontSize=12;startSize=8;endSize=8;curved=1;entryX=0.5;entryY=0;entryDx=0;entryDy=0;" edge="1" parent="WIyWlLk6GJQsqaUBKTNV-1" target="uvOYu6IpnbeJdLuDEGI5-14">
          <mxGeometry width="50" height="50" relative="1" as="geometry">
            <mxPoint x="410" y="80" as="sourcePoint" />
            <mxPoint x="440" y="110" as="targetPoint" />
            <Array as="points">
              <mxPoint x="680" y="50" />
            </Array>
          </mxGeometry>
        </mxCell>
        <mxCell id="uvOYu6IpnbeJdLuDEGI5-46" value="&lt;font style=&quot;font-size: 12px;&quot;&gt;end&lt;/font&gt;" style="ellipse;whiteSpace=wrap;html=1;fontSize=16;" vertex="1" parent="WIyWlLk6GJQsqaUBKTNV-1">
          <mxGeometry x="362" y="960" width="92" height="40" as="geometry" />
        </mxCell>
      </root>
    </mxGraphModel>
  </diagram>
</mxfile>
